<?xml version="1.0" encoding="utf-8"?>
<!-- Generator: Adobe Illustrator 28.1.0, SVG Export Plug-In . SVG Version: 6.00 Build 0)  -->
<svg version="1.1" id="Layer_1" xmlns="http://www.w3.org/2000/svg" xmlns:xlink="http://www.w3.org/1999/xlink" x="0px" y="0px"
	 viewBox="0 0 416 384.6" style="enable-background:new 0 0 416 384.6;" xml:space="preserve">
<style type="text/css">
	.st0{fill:#4B8FAC;}
</style>
<path class="st0" d="M316.3,325.2h-65.6c-3.8,0-6.9-3.1-6.9-6.9v-92.2c0-2.5-1-4.8-2.8-6.6c-1.8-1.8-4.2-2.8-6.7-2.8h-54.7
	c-2.5,0-5,1-6.7,2.8c-1.8,1.8-2.8,4.1-2.8,6.6v92.2c0,3.8-3.1,6.9-6.9,6.9H97.6c-4.8,0-9.2-1.8-12.6-5.2c-3.4-3.4-5.3-7.8-5.3-12.6
	V162.3l-21.1,20c-2.8,2.6-7.2,2.5-9.8-0.3c-2.6-2.8-2.5-7.2,0.3-9.8L194.7,34.1c3-3,7.4-4.7,12.3-4.7h0c4.9,0,9.3,1.7,12.3,4.7
	l46.4,44v-31c0-3.8,3.1-6.9,6.9-6.9h32.8c3.8,0,6.9,3.1,6.9,6.9v75.3l52.5,49.9c2.8,2.6,2.9,7,0.3,9.8s-7,2.9-9.8,0.3l-21.1-20
	v145.2c0,4.8-1.9,9.2-5.3,12.6C325.6,323.4,321.1,325.2,316.3,325.2L316.3,325.2z M257.7,311.4h58.7c1.1,0,2.1-0.4,2.9-1.2
	c0.7-0.7,1.2-1.7,1.2-2.8V149.1L209.7,44c-0.1-0.1-0.2-0.2-0.2-0.2c-0.9-0.8-4-0.7-4.9,0c-0.1,0.1-0.1,0.1-0.2,0.2L93.6,149.1v158.3
	c0,1,0.4,2,1.2,2.8c0.7,0.7,1.8,1.2,2.9,1.2h58.7v-85.3c0-6.2,2.4-12,6.9-16.4c4.4-4.4,10.3-6.8,16.5-6.8h54.7
	c6.2,0,12.1,2.4,16.5,6.8c4.4,4.4,6.9,10.2,6.9,16.4L257.7,311.4L257.7,311.4z M279.5,91.2l19,18V54h-19L279.5,91.2L279.5,91.2z"/>
</svg>
