<?xml version="1.0" encoding="utf-8"?>
<!-- Generator: Adobe Illustrator 26.5.1, SVG Export Plug-In . SVG Version: 6.00 Build 0)  -->
<svg version="1.1" id="Layer_1" xmlns="http://www.w3.org/2000/svg" xmlns:xlink="http://www.w3.org/1999/xlink" x="0px" y="0px"
	 viewBox="0 0 512 512" style="enable-background:new 0 0 512 512;" xml:space="preserve">
<style type="text/css">
	.st0{fill:#4B8FAC;}
</style>
<path class="st0" d="M256.9,39.2c-148.5,0-150.2,135-150.2,140.7v48.7c-1.2,3.2-1.8,6.6-1.8,9.9v84.8c0,15.6,12.7,28.3,28.3,28.3
	h18.3c15.6,0,28.3-12.7,28.3-28.3v-84.8c0-15.6-12.7-28.3-28.3-28.3h-18.3c-4,0-7.9,0.9-11.5,2.4v-32.8c0-5.2,1.6-125.7,135.2-125.7
	c129.2,0,135.1,124.5,135.2,125.7v37c-5.1-4.3-11.5-6.7-18.2-6.7h-18.3c-15.6,0-28.3,12.7-28.3,28.3v84.8
	c0,15.6,12.7,28.3,28.3,28.3h18.3c1.3,0,2.6-0.1,3.9-0.3c-16.4,25.4-44.8,41.1-75,41.1h-15.3v-2.4c0-10.3-8.4-18.6-18.6-18.6H234
	c-10.3,0-18.6,8.4-18.6,18.6v16c0,10.3,8.4,18.6,18.6,18.6h34.9c9.8,0,17.8-7.6,18.6-17.2h15.4c57.5,0,104.3-46.8,104.3-104.3V179.9
	C407,143.5,379.5,39.2,256.9,39.2z"/>
</svg>
