<?xml version="1.0" encoding="utf-8"?>
<!-- Generator: Adobe Illustrator 26.5.1, SVG Export Plug-In . SVG Version: 6.00 Build 0)  -->
<svg version="1.1" id="Layer_1" xmlns="http://www.w3.org/2000/svg" xmlns:xlink="http://www.w3.org/1999/xlink" x="0px" y="0px"
	 viewBox="0 0 512 512" style="enable-background:new 0 0 512 512;" xml:space="preserve">
<style type="text/css">
	.st0{fill:#4B8FAC;}
</style>
<path class="st0" d="M454.2,146.9H334.4v-8c0-42.4-34.5-76.9-76.9-76.9h-3.1c-42.4,0-76.9,34.5-76.9,76.9v8H57.7
	c-7.5,0-13.7,6.2-13.7,13.6v251.8c0,7.5,6.2,13.7,13.7,13.7h396.6c7.5,0,13.7-6.2,13.7-13.7V160.6
	C467.9,153.1,461.7,146.9,454.2,146.9z M193.2,195.6v-33.1h125.5v33.1h15.6v-33.1h117.9v247.8H59.6V162.5h117.9v33.1H193.2z
	 M193.2,146.9v-8c0-33.8,27.5-61.3,61.3-61.3h3.1c33.8,0,61.3,27.5,61.3,61.3v8H193.2z"/>
</svg>
