<svg width="900" height="900" xmlns="http://www.w3.org/2000/svg">
  <rect width="900" height="900" fill="#f5f5f0"/>
  
  <!-- Room setting -->
  <rect x="0" y="600" width="900" height="300" fill="#f0f0f0"/>
  
  <!-- Table -->
  <ellipse cx="450" cy="500" rx="180" ry="30" fill="#f5deb3"/>
  <ellipse cx="450" cy="510" rx="180" ry="30" fill="#deb887"/>
  <rect x="435" y="510" width="30" height="200" fill="#8b7355"/>
  <ellipse cx="450" cy="710" rx="60" ry="15" fill="#8b7355"/>
  
  <!-- Chairs around table -->
  <!-- Chair 1 -->
  <rect x="300" y="400" width="80" height="15" fill="#8b4513" rx="8"/>
  <rect x="320" y="415" width="40" height="60" fill="#deb887"/>
  <rect x="315" y="475" width="10" height="40" fill="#8b4513"/>
  <rect x="355" y="475" width="10" height="40" fill="#8b4513"/>
  
  <!-- Chair 2 -->
  <rect x="520" y="400" width="80" height="15" fill="#8b4513" rx="8"/>
  <rect x="540" y="415" width="40" height="60" fill="#deb887"/>
  <rect x="535" y="475" width="10" height="40" fill="#8b4513"/>
  <rect x="575" y="475" width="10" height="40" fill="#8b4513"/>
  
  <!-- Coffee cups on table -->
  <circle cx="420" cy="500" r="8" fill="#8b4513"/>
  <circle cx="480" cy="500" r="8" fill="#8b4513"/>
  
  <!-- Window light -->
  <rect x="700" y="100" width="150" height="300" fill="rgba(255,255,255,0.3)"/>
  
  <!-- Text -->
  <rect x="50" y="50" width="300" height="120" fill="rgba(255,255,255,0.9)" rx="8"/>
  <text x="70" y="80" font-family="Arial, sans-serif" font-size="20" font-weight="bold" fill="#333">Gather Café Table</text>
  <text x="70" y="105" font-family="Arial, sans-serif" font-size="14" fill="#666">with Heiko Dining Chairs</text>
  <text x="70" y="125" font-family="Arial, sans-serif" font-size="12" fill="#8b7355">Beige Travertine & Walnut</text>
  <text x="70" y="145" font-family="Arial, sans-serif" font-size="12" fill="#999">Lifestyle Setting</text>
</svg>
