<?xml version="1.0" encoding="utf-8"?>
<!-- Generator: Adobe Illustrator 16.0.0, SVG Export Plug-In . SVG Version: 6.00 Build 0)  -->
<!DOCTYPE svg PUBLIC "-//W3C//DTD SVG 1.1//EN" "http://www.w3.org/Graphics/SVG/1.1/DTD/svg11.dtd">
<svg version="1.1" id="Layer_1" xmlns="http://www.w3.org/2000/svg" xmlns:xlink="http://www.w3.org/1999/xlink" x="0px" y="0px"
	 width="705.3px" height="436.4px" viewBox="0 0 705.3 436.4" enable-background="new 0 0 705.3 436.4" xml:space="preserve">
<g>
	<path d="M225.4,132.1c-35.1,9.1-56.2,45-47.1,80.1c9.1,35.1,45,56.2,80.1,47.1c35.1-9.1,56.2-45,47.1-80.1
		C296.4,144,260.5,122.9,225.4,132.1z M296,178.4l-43.7,11.3l32.2-31.7C293.2,167.8,296,178.4,296,178.4z M280.2,153.7L248,185.4
		l12-43.5C272.5,146,280.2,153.7,280.2,153.7z M254,140.2l-12,43.6L230.6,140C243.5,137.3,254,140.2,254,140.2z M242.7,198.8
		c-1.2,0.3-2.4-0.4-2.7-1.6c-0.3-1.2,0.4-2.4,1.6-2.7c1.2-0.3,2.4,0.4,2.7,1.6C244.6,197.3,243.9,198.5,242.7,198.8z M224.6,141.5
		l11.4,43.8l-31.7-32.2C204.3,153.1,212,145.5,224.6,141.5z M199.9,157.4l31.7,32.2l-43.6-12C188,177.6,190.9,167.4,199.9,157.4z
		 M186.3,183.6l43.5,12l-43.6,11.4C186.2,206.9,183.5,195.9,186.3,183.6z M187.7,212.9l43.8-11.4l-32.3,31.8
		C199.3,233.3,191.3,224.9,187.7,212.9z M203.6,237.7l32.2-31.7l-12,43.6C223.8,249.6,212.8,246.3,203.6,237.7z M229.8,251.3
		l12-43.6l11.4,43.7C253.2,251.4,242.4,254.1,229.8,251.3z M259.2,249.9l-11.4-43.7l31.7,32.2C279.5,238.3,271.5,246.1,259.2,249.9z
		 M283.9,234l-31.7-32.2l43.5,12C295.8,213.8,292.7,224.5,283.9,234z M297.4,207.9l-43.7-12.1l43.9-11.4
		C297.6,184.4,300.3,195.3,297.4,207.9z"/>
	<path d="M450.7,258.7c42.1-11.4,66.9-54.8,55.4-96.8c-4.5-16.5-13.9-30.3-26.2-40.3c0.5-0.7,0.8-1.1,0.8-1.1
		c2.8-5,2.3-10.7,2.3-10.7c-1.5-12.5-8.2-15-11.3-16.6c-3.1-1.5-8.3-1.8-8.3-1.8c-10.7,1.2-15.2,10.2-16.3,12.6
		c-0.3,0.7-0.8,1.1-1.5,1.4c-2.2-0.5-4.5-0.8-6.7-1.1c-0.2-0.5,0.5-1.1,0.5-1.1c10.9-12.4,25.4-13.5,27.5-13.7
		c13.8-1.7,23.7-2.8,26.9-3.3c3.2-0.5,3.6-2.2,3.6-2.2l23.9-42.5c0,0,1.2-3.2-1.6-3.6c-2.8-0.4-4.2,1.5-4.2,1.5l-4.4,4.4
		c-8.1,6.9-24.7,8.2-24.7,8.2h-21.4c-13.5,0-22.1,9.6-22.1,9.6s-30.1,40.2-31.5,42.7c-0.5,0.8-1.1,1.5-1.7,2.1
		c-0.2,0.1-0.5,0.1-0.7,0.2c-6.3,1.7-12.3,4.2-17.8,7.3h-23.3c-4.5,0-5.8-3.2-5.8-3.2L338,78.8c-1-1.6,2.5-2,2.5-2s5.5-0.3,6.8-0.9
		c1.3-0.6,2-1.5,2.1-4.5c0.2-3-3.1-3.7-4.5-4.2c-1.4-0.5-0.8-1.8-0.8-1.8s21-45.1,21.8-47.1c0.9-2,0.9-2.7,1.9-5.8
		c1-3.1,0.9-12.6-8.9-12.6c-7.4,0-11.3,7.2-11.3,14c0,6.8,8,6.8,8,6.8c1,0.3,0.8,0.8,0.8,0.8l-1.5,3.8l-1.5,1.7
		c0,0-54.4,4.7-61.2,5.2c-6.9,0.5-7.8,3.4-7.8,3.4s-38.9,72.7-40.7,75.8c-1.8,3.1-4.7,2.8-4.7,2.8h-29.8c-2.4-0.7-4.2-2.4-4.2-2.4
		s-16.1-17.2-18.7-20.3c-2.5-3.1-2.3-4.7-2.3-4.7V41.4c0,0,0-1.8-3.2-1.8c-3.2,0-3.1,1.8-3.1,1.8s-0.3,48.3-0.3,50.1
		c0,1.8,1.4,3.7,1.4,3.7s22.8,26.8,25.3,29.6c4.6,5.3,6.7,4.8,6.7,4.8s42.1-0.1,43.1-0.4c1-0.3,1.4-1,1.4-1s24.6-31.8,25.3-32.5
		c0.7-0.7,2-0.9,2-0.9h5.7c12.1,1.6,13.1,1.4,25.9,8.2c12.9,6.9,21.2,18.5,24.6,22.9c3.4,4.5,1.5,7.9,1.5,7.9s-6.5,21.6-7.4,24.6
		c-0.9,2.9-2.5,2.4-2.5,2.4h-19.1c0,0-2.6,0.1-2.5,3.4c0.1,3.3,2.5,3.4,2.5,3.4h21.1c3.8-0.1,4.1-2.1,4.1-2.1l7-20.3
		c0,0,2.4-7.7,2.9-8.9c0.5-1.1,1.4-1.4,1.4-1.4h17.6c0,0,0.6,0,1.8,0c-14.2,18.8-19.9,43.8-13.2,68.3
		C365.3,245.3,408.7,270.1,450.7,258.7z M493.3,67.5c3.4-0.2,1.9,1.2,1.9,1.2c-0.5,2.5-2.1,4.1-3.6,5.2c-1.5,1.2-3.2,0.8-3.2,0.8
		c-19.3-0.6-19.5-1-22.5-1.4c-3-0.4-1.5-1.5-1.5-1.5C471.7,66.7,490,67.7,493.3,67.5z M446,70.6c0.3-1.4,1.4-3.1,1.4-3.1
		c7-9.4,23.7-7.1,26.3-6.9c2.6,0.2,0.7,1.2,0.7,1.2l-4,0.6c-14.3,1.7-21,9.4-21,9.4h-2.9C446.1,71.8,445.7,72,446,70.6z
		 M451.5,249.3c-0.9,0.3-15.2-56-15.2-56l41.2,40.9C477.5,234.2,467.7,244.2,451.5,249.3z M430.2,171l-9.7-35.7l0-0.1h19.2
		L430.2,171z M430.7,185c-1.2,0.3-2.4-0.4-2.7-1.5c-0.3-1.2,0.4-2.4,1.5-2.7c1.2-0.3,2.4,0.4,2.7,1.5
		C432.5,183.5,431.9,184.7,430.7,185z M461,124.4h-12.5l2-8.1c4,1.1,8.2,2.7,12.1,5L461,124.4z M444.9,114.9l-2.5,9.5h-9.3v-8.8
		c0,0,0.1-0.9,0.9-2.1C435,113.5,439.4,113.7,444.9,114.9z M397.6,121.7l1-0.5h12.3l0.7,3.1h-12.4L397.6,121.7z M417.1,121.2h9.4
		v3.1h-8.7L417.1,121.2z M424.2,172.6l-37.7-37.5H414L424.2,172.6z M446.1,135.2c0,0,9,0.5,16.2-1.7c0.8-0.2,6.6-1.8,11.6-5.6
		c0,0,2.3,1.8,3.6,3.1l-41.3,41.6L446.1,135.2z M481.8,229.8c-0.5,0.5-41.2-40.9-41.2-40.9l56.2,14.8
		C496.9,203.8,493.2,217.6,481.8,229.8z M498.5,197.8c-0.2,0.7-56.4-14.9-56.4-14.9l56.4-15.3C498.5,167.6,502.2,181.6,498.5,197.8z
		 M496.9,161.6c0.3,1.1-56.3,15.3-56.3,15.3l41.3-41.6C481.9,135.3,492.1,145.5,496.9,161.6z M454.6,105.3
		c4.4-6.9,10.1-6.3,10.1-6.3s7.5,0.5,10.4,7.5c2.6,6.5-0.6,10.9-1.1,11.5c-1.2-0.8-10.6-7-20.7-10l0.4-0.7c-0.1,0-0.1,0-0.2-0.1
		L454.6,105.3z M347.3,35.4c2.2,0,1.4,1.2,1.4,1.2l-11.5,25.3c0,0-0.4,1.4-2.2,1.4c-1.8,0-2.8-0.1-2.2-1.4l11.5-25.3
		C344.4,36.6,345.1,35.4,347.3,35.4z M282.8,61.9c0,0-0.4,1.4-2.2,1.4c-1.8,0-2.8-0.1-2.2-1.4L290,36.6c0,0,0.8-1.2,2.9-1.2
		c2.2,0,1.4,1.2,1.4,1.2L282.8,61.9z M294,63.3c-1.8,0-2.8-0.1-2.2-1.4l11.5-25.3c0,0,0.8-1.2,2.9-1.2c2.2,0,1.4,1.2,1.4,1.2
		l-11.5,25.3C296.2,61.9,295.8,63.3,294,63.3z M310,61.9c0,0-0.4,1.4-2.2,1.4c-1.8,0-2.8-0.1-2.2-1.4l11.5-25.3c0,0,0.8-1.2,2.9-1.2
		c2.2,0,1.4,1.2,1.4,1.2L310,61.9z M323.6,61.7c0,0-0.4,1.4-2.2,1.4c-1.8,0-2.8-0.1-2.2-1.4l11.5-25.3c0,0,0.7-1.2,2.9-1.2
		c2.2,0,1.4,1.2,1.4,1.2L323.6,61.7z M362.2,122.1c-2.2-2.7-31.7-41.4-31.7-41.4s-0.6-0.8,0.1-1.2c0.6-0.4,1,0.4,1,0.4l29.5,38
		c0,0,2.7,3.6,3.8,3.6h12.7c0,0,1.2,0,1.9,0.5c-0.5,0.6-2.4,2.1-2.4,2.1h-11.2C365.9,124,364.4,124.7,362.2,122.1z M378,135.5
		c0.4-0.4,41.9,41.5,41.9,41.5L363,162C363,162,366.4,148.2,378,135.5z M361.4,168c0.3-1.5,56.8,15,56.8,15l-56.5,15.4
		C361.7,198.4,357.8,184.5,361.4,168z M363.4,204.4c-0.3-1,56.6-15.4,56.6-15.4l-41.1,41.5C378.8,230.5,368.5,220.5,363.4,204.4z
		 M383.2,234.8c-0.3-0.3,41.1-41.4,41.1-41.4l-14.8,56.2C409.5,249.6,395.6,246,383.2,234.8z M415.4,251.2
		c-0.3-0.1,14.8-56.2,14.8-56.2l15.3,56C445.5,250.9,431.4,254.8,415.4,251.2z"/>
	<path d="M89.4,302.4c-4-5.9-9.2-10.6-15.6-14.2c-6.4-3.6-14.1-5.4-23.1-5.4c-8.9,0-16.5,1.7-23,5.1c-6.5,3.4-11.7,7.9-15.8,13.5
		c-4.1,5.6-7.1,12-9,19.1C1,327.7,0,334.9,0,342.4c0,8,1,15.6,2.9,22.8c2,7.2,5,13.5,9,19c4.1,5.4,9.3,9.7,15.8,12.9
		c6.5,3.1,14.1,4.7,23,4.7c14.2,0,25.2-3.5,33-10.5c7.8-7,13.1-16.9,16-29.6H86c-2.2,8.7-6.1,15.7-11.7,20.9
		c-5.7,5.2-13.5,7.8-23.5,7.8c-6.5,0-12.1-1.4-16.7-4.2c-4.6-2.8-8.5-6.3-11.5-10.5s-5.3-9-6.6-14.4c-1.4-5.3-2.1-10.5-2.1-15.5
		h86.4c0.3-7.8-0.4-15.5-2.2-23.1C96.3,315,93.4,308.3,89.4,302.4z M13.8,334.3c0.6-5.1,1.8-10.1,3.6-14.9c1.8-4.9,4.2-9.2,7.3-12.9
		c3-3.7,6.7-6.7,11.1-8.9c4.3-2.3,9.3-3.4,15-3.4c5.5,0,10.4,1.1,14.8,3.4c4.3,2.3,8,5.2,11.1,8.9c3,3.7,5.4,8,7.1,12.8
		c1.7,4.8,2.6,9.8,2.7,15.1H13.8z"/>
	<rect x="119" y="286" width="13.8" height="112.4"/>
	<rect x="119" y="243.1" width="13.8" height="22"/>
	<rect x="159.3" y="243.1" width="13.8" height="155.3"/>
	<path d="M282.8,302.4c-4-5.9-9.2-10.6-15.6-14.2c-6.4-3.6-14.1-5.4-23.1-5.4c-8.9,0-16.5,1.7-23,5.1c-6.5,3.4-11.7,7.9-15.8,13.5
		c-4.1,5.6-7.1,12-9,19.1c-2,7.1-2.9,14.4-2.9,21.8c0,8,1,15.6,2.9,22.8c2,7.2,5,13.5,9,19c4.1,5.4,9.3,9.7,15.8,12.9
		c6.5,3.1,14.1,4.7,23,4.7c14.2,0,25.2-3.5,33-10.5c7.8-7,13.1-16.9,16-29.6h-13.8c-2.2,8.7-6.1,15.7-11.7,20.9
		c-5.7,5.2-13.5,7.8-23.5,7.8c-6.5,0-12.1-1.4-16.7-4.2c-4.6-2.8-8.5-6.3-11.5-10.5c-3-4.2-5.3-9-6.6-14.4
		c-1.4-5.3-2.1-10.5-2.1-15.5h86.4c0.3-7.8-0.4-15.5-2.2-23.1C289.7,315,286.8,308.3,282.8,302.4z M207.2,334.3
		c0.6-5.1,1.8-10.1,3.6-14.9s4.2-9.2,7.3-12.9c3-3.7,6.7-6.7,11.1-8.9c4.3-2.3,9.3-3.4,15-3.4c5.5,0,10.4,1.1,14.8,3.4
		c4.3,2.3,8,5.2,11.1,8.9c3,3.7,5.4,8,7.1,12.8c1.7,4.8,2.6,9.8,2.7,15.1H207.2z"/>
	<path d="M341.4,291.3c-7.3,5-12.8,12-16.3,21.2h-0.5v-26.4H312v112.3h13.8v-59.9c0-5.9,1-11.4,3.1-16.4c2-5,4.9-9.3,8.6-13
		c3.7-3.6,8.1-6.4,13.2-8.4c5.1-2,10.7-2.8,17-2.5v-13.8C357.5,284,348.7,286.3,341.4,291.3z"/>
	<path d="M455.7,346c-3-2.5-6.4-4.5-10.2-6c-3.8-1.5-7.7-2.6-11.6-3.2l-18.2-4.1c-2.3-0.6-4.9-1.3-7.6-2.3c-2.8-0.9-5.3-2.1-7.6-3.6
		c-2.3-1.5-4.2-3.2-5.8-5.4c-1.5-2.1-2.3-4.7-2.3-7.8c0-3.6,0.8-6.7,2.4-9.2c1.6-2.5,3.7-4.5,6.3-6c2.6-1.5,5.4-2.6,8.5-3.3
		c3.1-0.7,6.2-1,9.2-1c3.9,0,7.6,0.5,11,1.4s6.5,2.4,9.2,4.5c2.7,2,4.8,4.6,6.4,7.7c1.6,3.1,2.5,6.8,2.6,11h13.8
		c-0.3-6.1-1.5-11.4-3.7-15.9c-2.2-4.5-5.1-8.3-8.8-11.3c-3.7-3-8-5.2-12.8-6.7c-4.8-1.4-10.1-2.1-15.7-2.1c-4.9,0-9.9,0.6-14.9,1.7
		c-5,1.2-9.5,3-13.6,5.4c-4.1,2.5-7.3,5.7-9.9,9.8c-2.5,4.1-3.8,8.9-3.8,14.6c0,4.8,0.8,8.8,2.4,12.1c1.6,3.3,3.8,6,6.6,8.3
		c2.8,2.3,6.1,4.1,9.9,5.7c3.8,1.5,7.9,2.9,12.4,4l17.6,3.9c3,0.7,6,1.6,9,2.6c3,1,5.6,2.3,7.9,3.8c2.3,1.5,4.2,3.4,5.5,5.7
		c1.4,2.3,2.1,5.1,2.1,8.4c0,3.9-1,7.2-2.9,9.9c-2,2.7-4.5,4.9-7.5,6.6c-3,1.8-6.3,3-9.9,3.7c-3.5,0.7-7,1.1-10.3,1.1
		c-9.1,0-16.8-2.4-22.9-7.1c-6.2-4.7-9.5-11.7-10.1-21h-13.8c1.2,13.8,5.8,23.8,14,30.1c8.2,6.2,18.9,9.4,32.1,9.4
		c5.2,0,10.5-0.6,15.9-1.8c5.4-1.2,10.2-3.1,14.5-5.8c4.3-2.7,7.8-6.2,10.6-10.5c2.8-4.3,4.1-9.5,4.1-15.6c0-4.9-0.9-9.2-2.8-12.9
		C461,351.5,458.6,348.4,455.7,346z"/>
	<path d="M579.4,361.6h-13.8c-2.2,8.7-6.1,15.7-11.7,20.9c-5.7,5.2-13.5,7.8-23.5,7.8c-6.5,0-12.1-1.4-16.7-4.2
		c-4.6-2.8-8.5-6.3-11.5-10.5c-3-4.2-5.3-9-6.6-14.4c-1.4-5.3-2.1-10.5-2.1-15.5h86.4c0.3-7.8-0.4-15.5-2.2-23.1
		c-1.7-7.6-4.6-14.3-8.6-20.2c-4-5.9-9.2-10.6-15.6-14.2c-6.4-3.6-14.1-5.4-23.1-5.4c-8.9,0-16.5,1.7-23,5.1
		c-6.5,3.4-11.7,7.9-15.8,13.5c-4.1,5.6-7.1,12-9,19.1c-2,7.1-2.9,14.4-2.9,21.8c0,8,1,15.6,2.9,22.8c2,7.2,5,13.5,9,19
		c4.1,5.4,9.3,9.7,15.8,12.9c6.5,3.1,14.1,4.7,23,4.7c14.2,0,25.2-3.5,33-10.5C571.1,384.2,576.5,374.3,579.4,361.6z M497,319.4
		c1.8-4.9,4.2-9.2,7.3-12.9c3-3.7,6.7-6.7,11.1-8.9c4.3-2.3,9.3-3.4,15-3.4c5.5,0,10.4,1.1,14.8,3.4c4.3,2.3,8,5.2,11.1,8.9
		c3,3.7,5.4,8,7.1,12.8c1.7,4.8,2.6,9.8,2.7,15.1h-72.6C494,329.2,495.2,324.3,497,319.4z"/>
	<path d="M675.7,328.2v70.2h13.8v-72.3c0-6.7-0.7-12.7-2-18.1c-1.3-5.4-3.6-9.9-6.7-13.6c-3.2-3.7-7.4-6.6-12.7-8.6
		c-5.3-2-11.9-3-19.7-3c-8,0-15.3,2.1-22,6.2c-6.7,4.1-11.3,9.6-13.9,16.4H612v-19.4h-13.8v112.3H612v-65.6c0.1-5.5,1-10.6,2.7-15.4
		c1.7-4.7,4-8.8,7-12.2c3-3.4,6.6-6.1,10.9-8.1c4.3-2,9.2-2.9,14.7-2.9c5.5,0,10.1,0.9,13.8,2.6c3.7,1.8,6.6,4.1,8.8,7.2
		c2.2,3.1,3.7,6.6,4.6,10.8C675.2,318.9,675.7,323.4,675.7,328.2z"/>
	<path d="M704.5,280.7c-0.5-1.3-1.3-2.4-2.3-3.4c-1-1-2.1-1.7-3.4-2.3c-1.3-0.5-2.7-0.8-4.2-0.8c-1.5,0-2.9,0.3-4.2,0.8
		c-1.3,0.5-2.4,1.3-3.4,2.3c-1,1-1.7,2.1-2.3,3.4c-0.5,1.3-0.8,2.7-0.8,4.2c0,1.5,0.3,2.9,0.8,4.2c0.5,1.3,1.3,2.4,2.3,3.4
		c1,1,2.1,1.7,3.4,2.3c1.3,0.5,2.7,0.8,4.2,0.8c1.5,0,2.9-0.3,4.2-0.8c1.3-0.5,2.4-1.3,3.4-2.3c1-1,1.7-2.1,2.3-3.4
		c0.5-1.3,0.8-2.7,0.8-4.2C705.3,283.4,705,282,704.5,280.7z M702.9,288.5c-0.5,1.1-1.1,2.1-1.9,2.9c-0.8,0.8-1.8,1.5-2.9,2
		c-1.1,0.5-2.3,0.7-3.6,0.7c-1.3,0-2.5-0.2-3.6-0.7c-1.1-0.5-2.1-1.1-2.9-2c-0.8-0.8-1.4-1.8-1.9-2.9c-0.5-1.1-0.7-2.3-0.7-3.6
		s0.2-2.5,0.7-3.6c0.4-1.1,1.1-2.1,1.9-2.9c0.8-0.8,1.8-1.5,2.9-2c1.1-0.5,2.3-0.7,3.6-0.7c1.3,0,2.5,0.2,3.6,0.7
		c1.1,0.5,2.1,1.1,2.9,2c0.8,0.8,1.4,1.8,1.9,2.9c0.5,1.1,0.7,2.3,0.7,3.6S703.4,287.4,702.9,288.5z"/>
	<path d="M697.5,285.2c0.4-0.2,0.7-0.4,1-0.7c0.3-0.3,0.5-0.6,0.7-1c0.2-0.4,0.2-0.9,0.2-1.4c0-1.1-0.3-2-1-2.6
		c-0.6-0.6-1.7-0.9-3.1-0.9h-4.7v12.5h1.5v-5.5h2.6l3.5,5.5h1.8l-3.7-5.5C696.8,285.5,697.2,285.4,697.5,285.2z M694.2,284.3h-2V280
		h2.8c0.4,0,0.7,0,1.1,0.1c0.3,0.1,0.7,0.2,0.9,0.3c0.3,0.2,0.5,0.4,0.7,0.7c0.2,0.3,0.2,0.6,0.2,1.1c0,0.5-0.1,0.9-0.3,1.2
		c-0.2,0.3-0.5,0.5-0.8,0.6c-0.3,0.1-0.7,0.2-1.2,0.2C695.1,284.3,694.7,284.3,694.2,284.3z"/>
	<path d="M526.4,426.5c-0.5-0.4-1.1-0.8-1.8-1.1c-0.7-0.3-1.4-0.5-2.1-0.6l-3.3-0.7c-0.4-0.1-0.9-0.2-1.4-0.4
		c-0.5-0.2-1-0.4-1.4-0.6c-0.4-0.3-0.8-0.6-1-1c-0.3-0.4-0.4-0.8-0.4-1.4c0-0.6,0.1-1.2,0.4-1.6c0.3-0.4,0.7-0.8,1.1-1.1
		c0.5-0.3,1-0.5,1.5-0.6c0.6-0.1,1.1-0.2,1.7-0.2c0.7,0,1.4,0.1,2,0.3c0.6,0.2,1.2,0.4,1.7,0.8c0.5,0.4,0.9,0.8,1.2,1.4
		c0.3,0.6,0.4,1.2,0.5,2h2.4c-0.1-1.1-0.3-2-0.7-2.8c-0.4-0.8-0.9-1.5-1.6-2c-0.7-0.5-1.4-1-2.3-1.2c-0.9-0.3-1.8-0.4-2.8-0.4
		c-0.9,0-1.8,0.1-2.7,0.3c-0.9,0.2-1.7,0.5-2.4,1c-0.7,0.4-1.3,1-1.8,1.8c-0.5,0.7-0.7,1.6-0.7,2.6c0,0.9,0.1,1.6,0.4,2.2
		c0.3,0.6,0.7,1.1,1.2,1.5c0.5,0.4,1.1,0.7,1.8,1c0.7,0.3,1.4,0.5,2.2,0.7l3.2,0.7c0.5,0.1,1.1,0.3,1.6,0.5c0.5,0.2,1,0.4,1.4,0.7
		c0.4,0.3,0.7,0.6,1,1c0.2,0.4,0.4,0.9,0.4,1.5c0,0.7-0.2,1.3-0.5,1.8c-0.3,0.5-0.8,0.9-1.3,1.2c-0.5,0.3-1.1,0.5-1.8,0.7
		c-0.6,0.1-1.3,0.2-1.9,0.2c-1.6,0-3-0.4-4.1-1.3c-1.1-0.8-1.7-2.1-1.8-3.8h-2.4c0.2,2.5,1,4.3,2.5,5.4c1.5,1.1,3.4,1.7,5.7,1.7
		c0.9,0,1.9-0.1,2.8-0.3c1-0.2,1.8-0.6,2.6-1c0.8-0.5,1.4-1.1,1.9-1.9c0.5-0.8,0.7-1.7,0.7-2.8c0-0.9-0.2-1.6-0.5-2.3
		C527.3,427.5,526.9,427,526.4,426.5z"/>
	<rect x="531.8" y="415.8" width="2.4" height="20.1"/>
	<rect x="531.8" y="408.1" width="2.4" height="3.9"/>
	<path d="M553.6,417.3c-0.6-0.7-1.3-1.2-2.3-1.5c-0.9-0.4-2.1-0.5-3.5-0.5c-1.4,0-2.7,0.4-3.9,1.1c-1.2,0.7-2,1.7-2.5,2.9h-0.1v-3.5
		h-2.4v20.1h2.4v-11.7c0-1,0.2-1.9,0.5-2.7c0.3-0.8,0.7-1.6,1.2-2.2c0.5-0.6,1.2-1.1,1.9-1.4c0.8-0.4,1.6-0.5,2.6-0.5
		c1,0,1.8,0.2,2.5,0.5c0.7,0.3,1.2,0.7,1.6,1.3c0.4,0.5,0.7,1.2,0.8,1.9c0.2,0.7,0.2,1.5,0.2,2.4v12.5h2.4V423
		c0-1.2-0.1-2.3-0.4-3.2C554.6,418.8,554.2,418,553.6,417.3z"/>
	<path d="M573.5,431c-0.3,0.7-0.8,1.3-1.3,1.8c-0.5,0.5-1.1,0.9-1.8,1.2c-0.7,0.3-1.4,0.4-2.1,0.4c-1.2,0-2.2-0.2-3.1-0.7
		c-0.9-0.5-1.6-1.1-2.2-1.9c-0.6-0.8-1-1.7-1.3-2.7c-0.3-1-0.4-2.1-0.4-3.1c0-1.1,0.1-2.1,0.4-3.1c0.3-1,0.7-1.9,1.3-2.7
		c0.6-0.8,1.3-1.5,2.2-1.9c0.9-0.5,1.9-0.7,3.1-0.7c1.6,0,2.9,0.4,3.8,1.3c0.9,0.9,1.5,2,1.9,3.5h2.5c-0.3-2.3-1.2-4-2.7-5.2
		c-1.5-1.1-3.3-1.7-5.5-1.7c-1.5,0-2.9,0.3-4.1,0.9c-1.2,0.6-2.2,1.3-3,2.3c-0.8,1-1.4,2.1-1.8,3.4c-0.4,1.3-0.6,2.7-0.6,4.1
		c0,1.5,0.2,2.8,0.6,4.1c0.4,1.3,1,2.4,1.8,3.4c0.8,1,1.8,1.7,3,2.3c1.2,0.6,2.5,0.8,4.1,0.8c2.3,0,4.2-0.7,5.6-2
		c1.5-1.4,2.3-3.3,2.7-5.7h-2.5C574,429.5,573.8,430.3,573.5,431z"/>
	<path d="M595,418.7c-0.7-1.1-1.6-1.9-2.8-2.5c-1.1-0.7-2.5-1-4.1-1c-1.6,0-3,0.3-4.1,0.9c-1.2,0.6-2.1,1.4-2.8,2.4
		c-0.7,1-1.3,2.1-1.6,3.4c-0.3,1.3-0.5,2.6-0.5,3.9c0,1.4,0.2,2.8,0.5,4.1c0.3,1.3,0.9,2.4,1.6,3.4c0.7,1,1.7,1.7,2.8,2.3
		c1.2,0.6,2.5,0.8,4.1,0.8c2.5,0,4.5-0.6,5.9-1.9c1.4-1.3,2.3-3,2.9-5.3h-2.4c-0.4,1.6-1.1,2.8-2.1,3.7c-1,0.9-2.4,1.4-4.2,1.4
		c-1.2,0-2.2-0.2-3-0.7c-0.8-0.5-1.5-1.1-2.1-1.9c-0.5-0.8-0.9-1.6-1.2-2.5c-0.2-0.9-0.4-1.9-0.4-2.7h15.5c0.1-1.4-0.1-2.8-0.4-4.1
		C596.2,421,595.7,419.8,595,418.7z M581.4,424.4c0.1-0.9,0.3-1.8,0.6-2.7c0.3-0.9,0.8-1.6,1.3-2.3c0.5-0.7,1.2-1.2,2-1.6
		c0.8-0.4,1.7-0.6,2.7-0.6c1,0,1.9,0.2,2.7,0.6c0.8,0.4,1.4,0.9,2,1.6c0.6,0.7,1,1.4,1.3,2.3c0.3,0.9,0.5,1.7,0.5,2.7H581.4z"/>
	<path d="M619.3,411.5c-0.4,0.7-1,1.2-1.6,1.5c-0.6,0.3-1.4,0.6-2.3,0.6c-0.9,0.1-1.8,0.1-2.9,0.2v1.8h7.2v20.2h2.4v-27.3h-2
		C620,409.9,619.7,410.8,619.3,411.5z"/>
	<path d="M642,421.3L642,421.3c1.4-0.5,2.5-1.2,3.3-2.3c0.8-1.1,1.2-2.3,1.2-3.8c0-1.2-0.2-2.2-0.7-3c-0.5-0.9-1.1-1.6-1.9-2.1
		c-0.8-0.6-1.7-1-2.7-1.2c-1-0.3-2-0.4-3-0.4c-1,0-2,0.1-3,0.4c-1,0.3-1.9,0.7-2.6,1.2c-0.8,0.6-1.4,1.3-1.9,2.1
		c-0.5,0.9-0.7,1.9-0.7,3c0,1.5,0.4,2.8,1.2,3.8c0.8,1,1.9,1.8,3.3,2.2v0.1c-1.7,0.3-3,1.1-4,2.4c-1,1.3-1.5,2.8-1.5,4.6
		c0,1.4,0.2,2.6,0.7,3.6c0.5,1,1.2,1.9,2,2.6c0.9,0.7,1.8,1.2,3,1.5c1.1,0.3,2.3,0.5,3.6,0.5c1.3,0,2.5-0.2,3.6-0.5
		c1.1-0.3,2.1-0.8,3-1.5c0.9-0.7,1.5-1.5,2-2.6c0.5-1,0.7-2.2,0.7-3.6c0-1.9-0.5-3.4-1.4-4.6C645.2,422.4,643.8,421.7,642,421.3z
		 M634.2,419.2c-0.5-0.4-1-0.9-1.3-1.6c-0.3-0.6-0.5-1.4-0.5-2.3c0-0.8,0.2-1.5,0.5-2.1c0.3-0.6,0.8-1.1,1.3-1.5
		c0.5-0.4,1.2-0.7,1.9-0.9c0.7-0.2,1.4-0.3,2.2-0.3c0.8,0,1.6,0.1,2.3,0.3c0.7,0.2,1.3,0.5,1.8,0.9c0.5,0.4,0.9,0.9,1.2,1.5
		c0.3,0.6,0.4,1.3,0.4,2.1c0,0.9-0.2,1.6-0.5,2.3c-0.3,0.6-0.8,1.2-1.3,1.6c-0.5,0.4-1.1,0.7-1.9,0.9c-0.7,0.2-1.4,0.3-2.2,0.3
		c-0.7,0-1.4-0.1-2.1-0.2C635.3,419.9,634.7,419.6,634.2,419.2z M644.6,431c-0.4,0.8-0.9,1.4-1.5,1.9c-0.6,0.5-1.4,0.9-2.2,1.1
		c-0.8,0.2-1.7,0.4-2.7,0.4c-1,0-1.9-0.1-2.7-0.4c-0.8-0.3-1.6-0.6-2.2-1.1c-0.6-0.5-1.1-1.1-1.5-1.9c-0.4-0.8-0.5-1.7-0.5-2.7
		c0-1,0.2-1.9,0.6-2.6c0.4-0.8,0.9-1.4,1.5-1.9c0.6-0.5,1.4-0.9,2.2-1.1c0.8-0.2,1.7-0.3,2.7-0.3c0.9,0,1.8,0.1,2.6,0.3
		c0.8,0.2,1.6,0.6,2.2,1.1c0.6,0.5,1.1,1.1,1.5,1.9c0.4,0.7,0.6,1.6,0.6,2.6C645.1,429.3,644.9,430.2,644.6,431z"/>
	<path d="M666.8,411.7c-0.8-1.2-1.8-2-3-2.5c-1.2-0.5-2.6-0.8-4.3-0.8c-1.3,0-2.6,0.2-3.7,0.7c-1.1,0.5-2.1,1.1-2.9,1.9
		c-0.8,0.8-1.5,1.8-1.9,2.9c-0.5,1.1-0.7,2.4-0.7,3.7c0,1.3,0.2,2.5,0.6,3.7c0.4,1.1,1,2.1,1.8,2.9c0.8,0.8,1.7,1.4,2.8,1.9
		c1.1,0.5,2.3,0.7,3.7,0.7c1.6,0,3-0.4,4.3-1.2c1.3-0.8,2.3-1.9,2.9-3.3h0.1c0,1.2-0.1,2.6-0.3,4c-0.2,1.4-0.5,2.7-1.1,3.9
		c-0.5,1.2-1.3,2.2-2.3,3c-1,0.8-2.3,1.2-3.9,1.2c-1.6,0-2.9-0.5-3.9-1.4c-1-0.9-1.6-2.2-1.8-3.7H651c0.3,2.4,1.1,4.2,2.6,5.4
		s3.4,1.7,5.8,1.7c1.5,0,2.8-0.3,3.8-0.8c1.1-0.5,2-1.2,2.7-2c0.7-0.8,1.3-1.7,1.7-2.8c0.4-1,0.7-2,1-3c0.2-1,0.4-1.9,0.4-2.8
		c0.1-0.9,0.1-1.6,0.1-2.1c0-2.6-0.2-4.9-0.6-6.7C668.2,414.3,667.6,412.8,666.8,411.7z M665.7,420.3c-0.3,0.9-0.7,1.6-1.3,2.3
		c-0.6,0.6-1.3,1.2-2.1,1.5c-0.8,0.4-1.8,0.6-2.9,0.6c-1,0-2-0.2-2.8-0.6c-0.8-0.4-1.5-0.9-2.1-1.5c-0.6-0.6-1-1.4-1.3-2.3
		c-0.3-0.9-0.4-1.8-0.4-2.8c0-0.9,0.2-1.8,0.5-2.7c0.3-0.9,0.8-1.6,1.3-2.2c0.6-0.6,1.3-1.1,2.1-1.5c0.8-0.4,1.7-0.6,2.7-0.6
		c1.2,0,2.2,0.2,3.1,0.5c0.9,0.4,1.6,0.9,2.1,1.5c0.6,0.6,1,1.4,1.2,2.2c0.3,0.8,0.4,1.8,0.4,2.7C666.2,418.5,666,419.4,665.7,420.3
		z"/>
	<path d="M688,420.4c-0.8-0.8-1.7-1.5-2.9-2c-1.1-0.5-2.4-0.7-3.8-0.7c-1.1,0-2.1,0.2-3.2,0.7c-1,0.4-1.9,1.1-2.6,1.9l-0.1-0.1
		l1.8-9h11.9V409h-13.6l-2.6,14.1h2.1c0.7-1,1.5-1.8,2.6-2.4s2.2-0.8,3.5-0.8c1,0,1.9,0.2,2.8,0.5c0.9,0.4,1.6,0.9,2.2,1.5
		c0.6,0.6,1.1,1.4,1.4,2.2c0.3,0.9,0.5,1.8,0.5,2.8c0,1-0.2,1.9-0.5,2.8c-0.3,0.9-0.8,1.7-1.4,2.4c-0.6,0.7-1.3,1.2-2.1,1.6
		c-0.8,0.4-1.8,0.6-2.8,0.6c-0.9,0-1.8-0.1-2.6-0.4c-0.8-0.3-1.5-0.7-2.1-1.3c-0.6-0.6-1.1-1.2-1.4-2c-0.3-0.8-0.5-1.6-0.6-2.6h-2.4
		c0,1.3,0.3,2.5,0.7,3.5c0.5,1,1.1,1.9,1.9,2.6c0.8,0.7,1.7,1.3,2.8,1.6c1.1,0.4,2.3,0.6,3.5,0.6c1.3,0,2.5-0.2,3.7-0.7
		c1.2-0.5,2.2-1.1,3-1.9c0.9-0.8,1.5-1.8,2-2.9c0.5-1.1,0.7-2.4,0.7-3.7c0-1.4-0.2-2.6-0.6-3.8C689.4,422.3,688.8,421.3,688,420.4z"
		/>
</g>
</svg>
